<svg width="227" height="53" viewBox="0 0 227 53" fill="none" xmlns="http://www.w3.org/2000/svg">
<g clip-path="url(#clip0_33_2)">
<path d="M1.30448 52.2818H15.0752L18.4092 33.3224H20.4386L28.1212 52.2818H43.4865L33.9194 31.8861C37.1084 30.7371 39.8626 28.7262 41.747 26.2845C44.2112 22.981 44.936 19.3902 44.936 16.8048C44.936 12.2086 42.7617 8.76146 39.2828 6.46336C35.9488 4.30888 31.6001 3.73436 25.3671 3.73436H0.434747C-0.000118593 3.59073 -0.145074 4.30888 0.289792 4.59615L7.97242 7.89967C8.6972 8.0433 8.98711 8.76146 8.84215 9.33598L1.30448 52.2818ZM29.5708 22.8373C28.2662 23.9864 26.2368 24.5609 23.9175 24.5609H19.8588L21.8881 13.3577H24.7872C26.3817 13.3577 28.2662 13.5013 29.7157 14.5067C31.0203 15.3685 31.6001 16.6612 31.6001 18.3848C31.6001 20.252 30.8754 21.6883 29.5708 22.8373Z" fill="#E4170F"/>
<path d="M75.8116 2.87268C67.8391 2.87268 60.8812 6.03257 55.9527 11.3469C50.8793 16.9486 48.705 24.1301 48.705 30.3063C48.705 44.5258 59.7216 52.8564 72.7675 52.8564C80.7401 52.8564 87.6979 49.6965 92.6264 44.3822C97.6999 38.7805 99.8742 31.599 99.8742 25.4228C99.8742 11.3469 89.0025 3.01631 75.8116 2.87268ZM81.8997 36.9133C79.8703 39.2114 76.9712 40.935 73.2024 40.935C66.5345 40.935 62.7656 35.6206 62.7656 29.4445C62.7656 25.4228 64.3601 21.4011 66.5345 18.8158C68.5638 16.5177 71.4629 14.7941 75.2318 14.7941C81.8997 14.7941 85.6686 20.1085 85.6686 26.2846C85.8135 30.4499 84.0741 34.4716 81.8997 36.9133Z" fill="#E4170F"/>
<path d="M109.586 52.2818H123.937C123.937 52.2818 133.504 32.1734 135.388 27.8645H135.533C135.823 32.0298 137.997 52.2818 137.997 52.2818H152.638L176.411 3.73438H162.205C162.205 3.73438 150.319 29.1571 148.434 33.4661H148.289C147.999 29.3008 145.245 3.73438 145.245 3.73438H134.953C134.953 3.73438 122.777 29.4444 121.038 33.4661H120.893C120.603 29.4444 118.284 3.73438 118.284 3.73438H95.8155C95.2356 3.73438 95.0907 4.45253 95.6705 4.59616L103.353 7.89969C104.078 8.04332 104.368 8.76148 104.368 9.336L109.586 52.2818Z" fill="#E4170F"/>
<path d="M209.75 15.3686L211.78 3.59082H180.469L171.772 52.2819H203.807L205.981 40.5041H188.007L189.312 33.4662H203.807L205.837 22.4065H191.196L192.501 15.3686H209.75Z" fill="#E4170F"/>
<path d="M218.883 4.02168C218.883 1.72358 220.622 0 222.941 0C225.261 0 227 1.72358 227 4.02168C227 6.31978 225.261 8.04336 222.941 8.04336C220.622 8.04336 218.883 6.31978 218.883 4.02168ZM226.275 4.02168C226.275 2.15447 224.971 0.861789 223.086 0.861789C221.202 0.861789 219.897 2.2981 219.897 4.02168C219.897 5.88889 221.202 7.18157 223.086 7.18157C224.971 7.18157 226.275 5.74526 226.275 4.02168ZM222.941 4.59621H222.506V6.17615H221.492V1.86721H223.231C224.101 1.86721 224.971 2.2981 224.971 3.30352C224.971 3.87805 224.681 4.30894 224.101 4.59621L225.116 6.31978H223.811L222.941 4.59621ZM222.941 3.87805C223.376 3.87805 223.666 3.73442 223.666 3.30352C223.666 2.87263 223.376 2.729 222.941 2.729H222.361V3.87805H222.941Z" fill="#E4170F"/>
</g>
<defs>
<clipPath id="clip0_33_2">
<rect width="227" height="53" fill="white"/>
</clipPath>
</defs>
</svg>
