<svg width="68" height="86" viewBox="0 0 68 86" fill="none" xmlns="http://www.w3.org/2000/svg">
<path d="M8.00965 11.8707L25.3713 11.8707C25.3713 13.4941 25.3713 14.1856 25.3713 15.8583C27.8561 16.0198 28.5037 15.2137 30.5224 14.0624C31.2313 13.4923 32.8143 12.3797 33.547 11.8413C35.5685 10.3646 39.5911 6.98607 42.125 7.19693C44.0086 7.25705 46.7357 8.66287 48.1169 9.83327C48.7948 10.3888 53.7503 14.226 54.4385 14.7685C54.4385 14.7685 60.2511 19.5731 61.5286 20.6319C64.4052 22.9925 66.2195 26.8025 66.7547 30.2971C66.8344 31.5065 66.8821 33.594 66.8748 34.8055C66.8781 35.8802 66.8714 68.1926 66.8714 68.1926C66.8831 72.0644 66.4328 76.4029 63.6726 79.3216C61.4812 81.5284 57.5246 82.9757 54.4195 83C54.1818 82.9991 54.1817 83.0008 53.9392 83C53.7658 83.0008 53.5923 82.9991 53.4136 83C52.8374 83.0023 52.2612 83.0003 51.685 83C51.2698 83.0011 50.9152 82.9986 50.5 83C49.3757 83.0032 48.2342 82.9563 47.1099 82.9565C46.4066 82.9567 45.6598 82.999 44.9566 83C42.6273 83.0032 40.2981 83.0002 37.9688 83C37.7808 82.9999 37.7808 83 37.5891 83C37.4636 83 37.3382 83 37.2089 83C35.1763 82.9998 33.1437 82.9948 31.1111 83C29 83 26.9276 83.0002 24.8359 83C23.6634 82.9999 22.4909 82.9961 21.3185 83C20.2154 83.0035 19.1123 83.0026 18.0092 83C17.6057 82.9996 17.2022 82.9978 16.7987 83C12.8826 83.02 8.94989 82.3405 6.0726 79.5C3.67133 76.9719 2.48983 72.9283 2.50004 69.5024C2.49881 69.1949 2.50128 69.1949 2.50003 68.8811C2.49775 68.1991 2.49974 67.5172 2.50004 66.8352C2.49896 66.3442 2.50142 65.8532 2.50004 65.3623C2.49705 64.1702 2.50025 62.9782 2.50004 61.7861C2.49987 60.8169 2.50119 59.8476 2.50004 58.8784C2.49686 56.1267 2.49976 53.375 2.50003 50.6234C2.50005 50.4753 2.50002 50.3273 2.50003 50.1747C2.50005 50.0265 2.50002 49.8782 2.50003 49.7255C2.50018 47.3215 2.50513 44.9176 2.50003 42.5136C2.49483 40.0416 2.49972 37.5696 2.50003 35.0976C2.50015 33.7111 2.50393 32.3247 2.50003 30.9383C2.49673 29.7584 2.49758 28.5786 2.50003 27.3987C2.50121 26.7974 2.50278 26.1961 2.50003 25.5947C2.49724 24.9415 2.49725 24.2885 2.50003 23.6353C2.49817 23.447 2.50195 23.2588 2.50003 23.0648C2.51874 21.0749 2.64629 18.929 4.00003 17.5C5.00003 16.5 7.06399 15.8583 8.00965 15.8583C8.00965 14.1146 8.00965 13.6672 8.00965 11.8707ZM38.9306 12.9726C38.552 13.2635 38.0945 13.6119 37.71 13.8948C36.8265 14.5456 35.9581 15.2994 35.079 15.9563C29.1957 20.3519 29.0732 20.0926 28.0173 20.0926C27.8512 20.093 27.6852 20.0935 27.5141 20.094C27.3314 20.0936 27.1486 20.0932 26.9604 20.0928C26.7683 20.0932 26.5763 20.0935 26.3784 20.0938C25.9602 20.0946 25.542 20.0949 25.1237 20.095C24.2349 20.0956 23.3461 20.0995 22.4573 20.1033C20.8012 20.1102 19.1451 20.1159 17.489 20.1155C16.3382 20.1154 15.1875 20.1196 14.0367 20.1268C13.5981 20.1287 13.1595 20.129 12.7209 20.1276C12.1065 20.1258 11.4924 20.1297 10.8781 20.1348C10.6972 20.1329 10.5163 20.1311 10.3299 20.1292C9.32884 20.1441 8.68824 20.2709 7.89114 20.8967C7.36947 21.468 7.24101 21.9949 7.23972 22.7585C7.23855 22.9332 7.23738 23.108 7.23618 23.2881C7.23674 23.4795 7.2373 23.671 7.23788 23.8683C7.23706 24.0721 7.23624 24.2759 7.2354 24.4859C7.2331 25.1714 7.2334 25.8569 7.2337 26.5424C7.23262 27.0329 7.2314 27.5234 7.23002 28.0139C7.22701 29.2097 7.22602 30.4055 7.22582 31.6014C7.22565 32.5739 7.2249 33.5463 7.22376 34.5188C7.22057 37.2771 7.2189 40.0354 7.21917 42.7936C7.21919 42.9424 7.2192 43.0911 7.21922 43.2443C7.21923 43.3932 7.21925 43.5421 7.21926 43.6956C7.21941 46.1066 7.21595 48.5176 7.21085 50.9286C7.20565 53.4053 7.20316 55.882 7.20347 58.3587C7.20359 59.7488 7.2026 61.1388 7.1987 62.5288C7.1954 63.7129 7.19463 64.8969 7.19708 66.081C7.19826 66.6846 7.1979 67.2881 7.19514 67.8917C7.19234 68.5477 7.19403 69.2035 7.19682 69.8595C7.19403 70.1424 7.19403 70.1424 7.19118 70.4311C7.21382 72.8548 8.23676 74.7356 9.82946 76.496C11.3322 77.9687 13.2178 78.584 15.2652 78.5852C15.4361 78.586 15.6069 78.5868 15.783 78.5876C16.3582 78.5901 16.9333 78.5912 17.5085 78.5923C17.9199 78.5937 18.3313 78.5952 18.7427 78.5968C20.0965 78.6016 21.4503 78.6044 22.8041 78.607C23.2702 78.6079 23.7364 78.6089 24.2025 78.6099C26.1421 78.6139 28.0816 78.6173 30.0212 78.6193C30.5246 78.6199 31.0279 78.6204 31.5312 78.6209C31.7189 78.6211 31.7189 78.6211 31.9103 78.6214C33.9337 78.6237 35.957 78.6297 37.9803 78.6373C40.0597 78.6451 42.1391 78.6493 44.2186 78.6503C45.3853 78.6509 46.5519 78.6531 47.7185 78.659C48.8173 78.6645 49.916 78.6657 51.0148 78.6635C51.4168 78.6635 51.8189 78.665 52.2209 78.6682C55.3214 78.6916 57.6519 78.3873 60.0156 76.1657C60.8101 75.3465 61.2992 74.5121 61.7224 73.4555C61.6276 73.6769 61.8145 73.2405 61.7224 73.4555C61.7224 73.4555 62.3414 71.1771 62.3351 70.2764C62.3361 70.1088 62.337 69.9412 62.338 69.7685C62.3406 69.2099 62.3393 68.6514 62.338 68.0928C62.3391 67.691 62.3403 67.2893 62.3418 66.8875C62.345 65.798 62.3448 64.7085 62.3438 63.619C62.3432 62.7081 62.3443 61.7971 62.3454 60.8862C62.3481 58.6129 62.3475 56.3395 62.3453 54.0662C62.3435 52.0968 62.3458 50.1275 62.3501 48.1581C62.3546 46.1317 62.3562 44.1052 62.3551 42.0788C62.3545 40.9428 62.3549 39.8069 62.358 38.671C62.3608 37.6017 62.3601 36.5324 62.3567 35.4631C62.3561 35.0722 62.3566 34.6814 62.3585 34.2905C62.3753 30.5592 61.6028 27.6495 59.0247 24.8075C57.7254 23.5006 56.354 22.3531 54.9049 21.2234C54.3369 20.7774 50.4916 17.754 50.4916 17.754C49.3376 16.8028 51.6684 18.6766 50.4916 17.754C50.4916 17.754 44.5121 12.8706 44.382 12.7668C43.3827 11.9903 42.9041 11.4399 41.6159 11.4808C40.6615 11.7092 39.6962 12.3813 38.9306 12.9726Z" fill="#3F4E54"/>
<path d="M29.9578 41C30.7634 41.2431 31.314 41.8015 31.9432 42.3778C32.651 43.0262 35.0104 45.5387 35.4823 46.025C35.9542 46.5113 37.9726 49.0209 38.3758 49.5732C39.9744 51.7754 41.3471 53.994 42.3842 56.541C42.4379 56.6657 42.4916 56.7905 42.547 56.919C43.5063 59.5446 42.8016 62.7041 41.7379 65.1631C41.2798 66.1668 40.7168 67.0368 40.0247 67.8877C39.959 67.9688 39.8932 68.0499 39.8255 68.1334C38.9047 69.2552 37.9495 70.2027 36.7215 70.9676C36.5262 71.0942 36.5262 71.0942 36.327 71.2234C35.4855 71.736 34.6315 72.0931 33.7034 72.396C33.5493 72.4464 33.5493 72.4464 33.3921 72.4977C30.2727 73.4586 26.9112 73.0009 24.0554 71.465C23.2639 71.0224 22.4992 70.5529 21.7783 69.995C21.6879 69.9283 21.5975 69.8617 21.5043 69.793C19.1113 67.8781 17.4463 64.4466 17.0594 61.4039C16.9152 59.3211 16.9823 57.4853 17.8459 55.5684C17.9257 55.3899 17.9257 55.3899 18.0071 55.2077C18.8408 53.3865 19.8525 51.7739 21.0694 50.2025C21.3072 49.8941 21.5402 49.5824 21.7722 49.2694C22.4278 48.3891 23.8513 46.6587 24.6385 45.8971C24.6385 45.8971 27.9321 42.4163 28.0702 42.2765C28.6243 41.7157 29.2077 41.2255 29.9578 41ZM29.291 45.3163C29.1649 45.4476 27.6078 47.0694 27.6078 47.0694C26.7643 47.9499 26.1232 48.7806 25.2327 49.8276C24.9427 50.1958 24.6401 50.5429 24.3246 50.8879C21.7749 53.8294 19.787 57.1132 20.0031 61.1326C20.1868 62.9041 21.0868 64.5291 22.0929 65.9426C22.1633 66.0448 22.2336 66.1469 22.3061 66.2522C23.6449 68.0283 25.9242 69.4449 28.0843 69.7924C31.1487 70.0636 33.84 69.5173 36.3479 67.5635C37.8628 66.2212 38.9285 64.4885 39.5528 62.5386C39.5912 62.4236 39.6295 62.3087 39.669 62.1903C40.3077 59.853 39.857 57.6646 38.7601 55.582C37.4178 53.1221 33.7925 48.8458 33.7925 48.8458C33.7925 48.8458 31.9051 46.6918 31.4029 46.1668C31.4029 46.1668 30.7267 45.4808 30.5275 45.2956C30.4208 45.1963 30.2129 44.9714 29.977 44.9714C29.741 44.9714 29.6512 44.9655 29.291 45.3163Z" fill="#3F4E54"/>
<path d="M35.7833 58.0485C36.3103 58.2185 36.5505 58.417 36.8896 58.8165C37.2094 60.241 36.8113 61.6018 35.995 62.8287C34.729 64.3346 33.2593 65.4905 31.1645 65.878C29.4108 66.0787 29.4648 66.0385 28.6821 65.7069C28.2322 65.2862 28.0586 64.8285 28 64.2631C28.1238 63.6269 28.2424 63.3585 28.831 62.9811C29.4274 62.7325 30.0498 62.6755 30.6962 62.5899C31.6334 62.4255 32.3464 61.8881 32.9389 61.2301C33.2028 60.7841 33.2896 60.3437 33.4008 59.8497C33.5484 59.2134 33.6593 58.8306 34.0494 58.2749C34.6881 57.951 35.0702 57.9698 35.7833 58.0485Z" fill="#3F4E54"/>
<path fill-rule="evenodd" clip-rule="evenodd" d="M40.3643 22.8035C39.9268 22.4121 39.5033 22.0419 38.9966 21.7445C38.0094 21.5496 37.4769 21.8248 36.7009 22.3922C36.5745 22.4895 33.2094 25.1152 33.2094 25.1152C33.2094 25.1152 30.7679 26.785 29.5335 27.6821C29.3592 27.8087 29.1775 27.9325 28.9946 28.057C28.0772 28.6818 27.1313 29.3261 26.9474 30.4561C26.8796 31.128 27.1259 31.4401 27.4792 31.8788C27.5769 31.9594 27.6589 32.027 27.7469 32.0855C28.2043 32.3896 28.8248 32.4485 32.6705 32.8133C32.8985 32.8349 33.696 32.9093 34.6542 32.9988C36.3656 33.1585 38.5896 33.3661 38.9966 33.4055C38.9966 33.4055 45.4216 34.1148 47.0593 34.3293C47.2425 34.3541 47.4212 34.38 47.597 34.4056C48.575 34.5478 49.4591 34.6763 50.4807 34.4987C51.0232 34.4076 51.4283 33.9102 51.611 33.3656C51.724 33.0411 51.7127 32.5343 51.7127 32.5343C51.6904 32.3745 51.6746 32.262 51.6349 32.1586C51.5404 31.9124 51.3098 31.7185 50.5301 31.0625L50.0964 30.718L49.6103 30.3301C48.6168 29.5401 47.6286 28.7435 46.6475 27.938C45.4906 26.988 44.3329 26.0402 43.1562 25.1152C42.6031 24.6841 42.0528 24.2521 41.5194 23.7961L41.1336 23.4619C40.877 23.2426 40.6206 23.0232 40.3643 22.8035ZM39.3438 26.3956C39.0186 26.0853 38.7579 25.8366 38.2365 25.7444C37.7687 25.7045 37.1499 26.146 36.5662 26.5626C36.3635 26.7071 36.1651 26.8487 35.9787 26.9661C35.8448 27.0504 35.6814 27.1437 35.5032 27.2455C34.6522 27.7316 33.4644 28.41 33.5485 29.2148C33.6905 29.7729 34.7043 29.8532 35.6341 29.9268C35.8147 29.9411 35.9922 29.9552 36.1596 29.9724C36.6539 30.0189 37.8216 30.0957 38.341 30.1258C40.4096 30.2457 41.5987 30.3146 43.6649 30.428C43.7397 30.428 43.8008 30.4349 43.8502 30.4405C43.98 30.4552 44.0297 30.4609 44.0378 30.308C44.0416 30.2381 43.7487 30.0176 43.4683 29.8064C43.3474 29.7154 43.2288 29.626 43.1373 29.5513C43.0054 29.4446 40.7703 27.6342 40.7703 27.6342C40.7703 27.6342 40.2726 27.1843 39.7766 26.7839C39.6092 26.6488 39.4715 26.5174 39.3438 26.3956Z" fill="#3F4E54"/>
</svg>
