<svg width="86" height="86" viewBox="0 0 86 86" fill="none" xmlns="http://www.w3.org/2000/svg">
<path d="M10.75 29.5625C10.7496 26.4443 11.5243 23.3749 13.0044 20.6304C14.4846 17.8859 16.6237 15.5524 19.2294 13.8396C21.835 12.1269 24.8256 11.0887 27.9321 10.8185C31.0385 10.5482 34.1634 11.0544 37.0257 12.2914C39.888 13.5284 42.398 15.4576 44.3298 17.9053C46.2616 20.3529 47.5547 23.2424 48.0928 26.3138C48.6309 29.3852 48.3971 32.5422 47.4124 35.5009C46.4277 38.4595 44.7231 41.127 42.4518 43.2634C46.7341 45.3424 50.4521 48.423 53.2909 52.2443C56.1297 56.0655 58.0055 60.5147 58.7595 65.2149C58.8424 65.7379 58.8216 66.2722 58.698 66.7871C58.5745 67.3021 58.3507 67.7877 58.0395 68.2162C57.7283 68.6447 57.3358 69.0077 56.8843 69.2845C56.4328 69.5612 55.9312 69.7464 55.4082 69.8293C54.8852 69.9123 54.3509 69.8914 53.8359 69.7678C53.321 69.6443 52.8354 69.4205 52.4069 69.1093C51.9784 68.7981 51.6154 68.4056 51.3386 67.9541C51.0618 67.5026 50.8767 67.001 50.7938 66.478C49.9876 61.4272 47.4071 56.8292 43.5158 53.5097C39.6245 50.1903 34.6773 48.3668 29.5625 48.3668C24.4477 48.3668 19.5005 50.1903 15.6092 53.5097C11.7179 56.8292 9.13744 61.4272 8.33126 66.478C8.24797 67.001 8.06247 67.5026 7.78536 67.9539C7.50825 68.4053 7.14496 68.7976 6.71622 69.1086C6.28748 69.4195 5.80169 69.643 5.28659 69.7662C4.77149 69.8894 4.23717 69.9099 3.71413 69.8266C3.19109 69.7433 2.68958 69.5578 2.23823 69.2807C1.78688 69.0036 1.39453 68.6403 1.08358 68.2116C0.772633 67.7829 0.549176 67.2971 0.425968 66.782C0.302761 66.2669 0.282216 65.7325 0.365507 65.2095C1.11678 60.5097 2.9917 56.0608 5.83089 52.2409C8.67008 48.421 12.3896 45.3431 16.6733 43.2688C14.8028 41.5094 13.3123 39.3857 12.2936 37.0284C11.2749 34.6712 10.7496 32.1304 10.75 29.5625ZM59.125 21.5C62.248 21.5022 65.3031 22.4109 67.9196 24.1157C70.5361 25.8206 72.6015 28.2484 73.865 31.1043C75.1285 33.9602 75.5358 37.1215 75.0374 40.2045C74.539 43.2874 73.1565 46.1594 71.0575 48.4718C74.331 50.0934 77.2395 52.3654 79.6053 55.149C81.9712 57.9325 83.7447 61.1692 84.8175 64.6613C85.0306 65.3389 85.0605 66.0608 84.9044 66.7538C84.7483 67.4467 84.4116 68.086 83.9285 68.6068C83.4454 69.1276 82.8331 69.5112 82.1538 69.7189C81.4745 69.9265 80.7523 69.9507 80.0606 69.789C79.3691 69.6291 78.732 69.2893 78.2139 68.8042C77.6957 68.3191 77.3148 67.7058 77.1098 67.0263C76.145 63.9107 74.3891 61.0984 72.0132 58.8638C69.6374 56.6293 66.7228 55.0489 63.554 54.2767C62.6738 54.0643 61.8908 53.5616 61.3311 52.8498C60.7714 52.138 60.4676 51.2585 60.4688 50.353V48.461C60.4683 47.7105 60.6773 46.9747 61.0724 46.3366C61.4674 45.6984 62.0328 45.1832 62.7048 44.849C64.3343 44.0414 65.6429 42.7067 66.418 41.0615C67.1932 39.4163 67.3894 37.5574 66.9747 35.7867C66.56 34.0159 65.5589 32.4374 64.1339 31.3075C62.7088 30.1776 60.9436 29.5626 59.125 29.5625C58.0559 29.5625 57.0305 29.1378 56.2745 28.3818C55.5185 27.6258 55.0938 26.6004 55.0938 25.5313C55.0938 24.4621 55.5185 23.4367 56.2745 22.6807C57.0305 21.9247 58.0559 21.5 59.125 21.5ZM29.5625 18.8125C28.1309 18.7801 26.7073 19.0341 25.3752 19.5595C24.0432 20.0849 22.8295 20.8711 21.8055 21.872C20.7814 22.8729 19.9677 24.0683 19.412 25.388C18.8563 26.7077 18.5698 28.1251 18.5695 29.5571C18.5691 30.989 18.8548 32.4066 19.4099 33.7266C19.9649 35.0466 20.7781 36.2424 21.8016 37.2438C22.8251 38.2452 24.0384 39.032 25.3702 39.5581C26.7021 40.0841 28.1255 40.3388 29.5571 40.3071C32.3659 40.245 35.0387 39.0858 37.0035 37.0776C38.9683 35.0694 40.0688 32.3719 40.0695 29.5624C40.0702 26.753 38.971 24.0549 37.0073 22.0457C35.0435 20.0366 32.3712 18.876 29.5625 18.8125Z" fill="#3F4E54"/>
</svg>
