<svg width="30" height="30" viewBox="0 0 30 30" fill="none" xmlns="http://www.w3.org/2000/svg">
<path fill-rule="evenodd" clip-rule="evenodd" d="M24.7212 5.53746C25.0301 5.40745 25.3682 5.36261 25.7004 5.4076C26.0325 5.4526 26.3464 5.58579 26.6096 5.79331C26.8728 6.00083 27.0755 6.2751 27.1967 6.58756C27.3179 6.90002 27.3531 7.23926 27.2987 7.56996L24.4637 24.7662C24.1887 26.425 22.3687 27.3762 20.8475 26.55C19.575 25.8587 17.685 24.7937 15.985 23.6825C15.135 23.1262 12.5312 21.345 12.8512 20.0775C13.1262 18.9937 17.5012 14.9212 20.0012 12.5C20.9825 11.5487 20.535 11 19.3762 11.875C16.4987 14.0475 11.8787 17.3512 10.3512 18.2812C9.00374 19.1012 8.30124 19.2412 7.46124 19.1012C5.92874 18.8462 4.50749 18.4512 3.34749 17.97C1.77999 17.32 1.85624 15.165 3.34624 14.5375L24.7212 5.53746Z" fill="#3F4E54"/>
</svg>
