<svg width="46" height="49" viewBox="0 0 46 49" fill="none" xmlns="http://www.w3.org/2000/svg">
<path d="M1.80863 48.5662H15.5794L18.9134 29.6069H20.9427L28.6254 48.5662H43.9906L34.4236 28.1705C37.6126 27.0215 40.3667 25.0107 42.2512 22.5689C44.7154 19.2654 45.4402 15.6746 45.4402 13.0892C45.4402 8.49304 43.2658 5.04588 39.7869 2.74778C36.4529 0.593308 32.1043 0.0187824 25.8712 0.0187824H0.938898C0.504032 -0.124849 0.359076 0.593308 0.793942 0.880571L8.47657 4.18409C9.20135 4.32773 9.49126 5.04588 9.3463 5.62041L1.80863 48.5662ZM30.0749 19.1218C28.7703 20.2708 26.7409 20.8453 24.4217 20.8453H20.3629L22.3923 9.64209H25.2914C26.8859 9.64209 28.7703 9.78572 30.2199 10.7911C31.5245 11.6529 32.1043 12.9456 32.1043 14.6692C32.1043 16.5364 31.3795 17.9727 30.0749 19.1218Z" fill="#E4170F"/>
</svg>
