<svg width="86" height="86" viewBox="0 0 86 86" fill="none" xmlns="http://www.w3.org/2000/svg">
<g clip-path="url(#clip0_57_4)">
<path d="M56.4375 0.0839844L86 14.8652V47.8291L80.625 45.1416V20.8701L59.125 31.6201V42.4541L53.75 45.1416V31.6201L32.25 20.8701V30.4023L26.875 27.7148V14.8652L56.4375 0.0839844ZM56.4375 26.959L63.8701 23.2217L44.4277 12.0938L35.5674 16.5449L56.4375 26.959ZM69.665 20.3662L77.3076 16.5449L56.4375 6.08887L50.1807 9.23828L69.665 20.3662ZM48.375 47.8291L43 50.5166V50.4746L26.875 58.5371V77.6436L43 69.5391V75.5859L24.1875 84.9922L0 72.8564V44.4697L24.1875 32.376L48.375 44.4697V47.8291ZM21.5 77.6436V58.5371L5.375 50.4746V69.5391L21.5 77.6436ZM24.1875 53.876L39.6826 46.1494L24.1875 38.3809L8.69238 46.1494L24.1875 53.876ZM48.375 53.834L67.1875 44.4277L86 53.834V75.9639L67.1875 85.3701L48.375 75.9639V53.834ZM64.5 78.0215V65.2139L53.75 59.8389V72.6465L64.5 78.0215ZM80.625 72.6465V59.8389L69.875 65.2139V78.0215L80.625 72.6465ZM67.1875 60.5527L77.3076 55.4717L67.1875 50.4326L57.0674 55.4717L67.1875 60.5527Z" fill="#3F4E54"/>
</g>
<defs>
<clipPath id="clip0_57_4">
<rect width="86" height="86" fill="white"/>
</clipPath>
</defs>
</svg>
