<svg width="24" height="24" viewBox="0 0 24 24" fill="none" xmlns="http://www.w3.org/2000/svg">
<path d="M16.04 19.506C13.2575 18.7925 10.7179 17.3445 8.68671 15.3133C6.65555 13.2821 5.20749 10.7425 4.494 7.96C3.949 5.819 5.79 4 8 4L9 4C9.552 4 9.995 4.449 10.05 4.998C10.1405 5.9084 10.3555 6.80207 10.689 7.654L9.169 9.174C10.3554 11.6489 12.3511 13.6446 14.826 14.831L16.346 13.311C17.1979 13.6448 18.0916 13.8602 19.002 13.951C19.552 14.005 20 14.448 20 15V16C20 18.21 18.181 20.051 16.04 19.506Z" stroke="white" stroke-linecap="round" stroke-linejoin="round"/>
</svg>
