<svg width="100" height="100" viewBox="0 0 100 100" fill="none" xmlns="http://www.w3.org/2000/svg">
<path fill-rule="evenodd" clip-rule="evenodd" d="M50 100C77.6142 100 100 77.6142 100 50C100 22.3858 77.6142 0 50 0C22.3858 0 0 22.3858 0 50C0 77.6142 22.3858 100 50 100ZM63.083 47.6758C62.6744 46.9768 62.0886 46.4053 61.3881 46.0224L42.704 35.5776C39.6954 33.8972 36 36.0842 36 39.5469V60.4351C36 63.8962 39.6954 66.0847 42.704 64.4014L61.3881 53.958C62.0886 53.5751 62.6744 53.0036 63.083 52.3047C63.4916 51.6057 63.7074 50.8056 63.7074 49.9902C63.7074 49.1748 63.4916 48.3747 63.083 47.6758Z" fill="#E4170F"/>
</svg>
