<?xml version="1.0" encoding="utf-8"?><svg xmlns="http://www.w3.org/2000/svg" xmlns:xlink="http://www.w3.org/1999/xlink"><symbol viewBox="0 0 27 23" id="arrow-slider" xmlns="http://www.w3.org/2000/svg"><path d="M.94 10.94a1.5 1.5 0 0 0 0 2.12l9.545 9.547a1.5 1.5 0 1 0 2.122-2.122L4.12 12l8.486-8.485a1.5 1.5 0 1 0-2.122-2.122L.94 10.94zM27 10.5H2v3h25v-3z"/></symbol><symbol viewBox="0 0 22 20" id="email" xmlns="http://www.w3.org/2000/svg"><path d="M3 5v-.5a.5.5 0 0 0-.5.5H3zm18 0h.5a.5.5 0 0 0-.5-.5V5zM3 5.5h18v-1H3v1zM20.5 5v12h1V5h-1zM19 18.5H5v1h14v-1zM3.5 17V5h-1v12h1zM5 18.5A1.5 1.5 0 0 1 3.5 17h-1A2.5 2.5 0 0 0 5 19.5v-1zM20.5 17a1.5 1.5 0 0 1-1.5 1.5v1a2.5 2.5 0 0 0 2.5-2.5h-1z"/><path d="m3 5 9 9 9-9"/></symbol><symbol viewBox="0 0 28 28" id="facebook" xmlns="http://www.w3.org/2000/svg"><path d="M27.5 15.076C27.5 8.13 21.904 2.5 15 2.5S2.5 8.13 2.5 15.076c0 6.278 4.57 11.48 10.547 12.424v-8.788H9.873v-3.637h3.174v-2.77c0-3.152 1.865-4.893 4.721-4.893 1.367 0 2.799.245 2.799.245v3.095h-1.578c-1.552 0-2.036.97-2.036 1.965v2.359h3.467l-.554 3.635h-2.913V27.5C22.93 26.557 27.5 21.354 27.5 15.076z"/></symbol><symbol viewBox="0 0 26 26" id="instagram" xmlns="http://www.w3.org/2000/svg"><path fill-rule="evenodd" clip-rule="evenodd" d="M15 3.75c-3.056 0-3.438.013-4.638.067-1.198.055-2.016.246-2.732.524a5.51 5.51 0 0 0-1.992 1.297A5.518 5.518 0 0 0 4.34 7.63c-.276.716-.468 1.535-.522 2.733-.054 1.199-.068 1.58-.068 4.637 0 3.056.013 3.438.067 4.638.055 1.198.246 2.016.524 2.731a5.51 5.51 0 0 0 1.297 1.993A5.518 5.518 0 0 0 7.63 25.66c.716.277 1.534.468 2.732.523 1.2.054 1.582.067 4.638.067 3.055 0 3.438-.013 4.638-.067 1.198-.055 2.016-.246 2.731-.524a5.51 5.51 0 0 0 1.993-1.297 5.517 5.517 0 0 0 1.298-1.992c.277-.716.468-1.534.523-2.732.054-1.2.067-1.583.067-4.638 0-3.056-.013-3.438-.067-4.638-.055-1.198-.246-2.016-.524-2.732a5.514 5.514 0 0 0-1.297-1.992A5.518 5.518 0 0 0 22.37 4.34c-.716-.276-1.535-.468-2.733-.522-1.199-.054-1.58-.068-4.637-.068zm0 2.027c3.004 0 3.36.011 4.547.066 1.096.05 1.691.232 2.088.387.525.204.9.448 1.294.841.394.394.638.769.84 1.294.155.396.338.992.389 2.088.053 1.187.065 1.543.065 4.547 0 3.004-.011 3.36-.066 4.547-.05 1.096-.232 1.691-.387 2.088-.18.489-.468.931-.841 1.294-.363.373-.805.66-1.294.84-.397.155-.992.338-2.088.389-1.187.053-1.543.065-4.547.065-3.005 0-3.36-.011-4.546-.066-1.097-.05-1.693-.232-2.09-.387a3.485 3.485 0 0 1-1.293-.841 3.486 3.486 0 0 1-.84-1.294c-.155-.397-.338-.992-.388-2.088-.054-1.187-.066-1.543-.066-4.547 0-3.004.011-3.36.066-4.546.05-1.097.232-1.693.387-2.09.204-.524.448-.9.841-1.293.363-.373.805-.66 1.294-.84.396-.155.992-.338 2.088-.388 1.187-.054 1.543-.066 4.547-.066z"/><path fill-rule="evenodd" clip-rule="evenodd" d="M15.001 18.754a3.754 3.754 0 1 1 0-7.508 3.754 3.754 0 0 1 0 7.508zm0-9.536a5.782 5.782 0 1 0 0 11.565 5.782 5.782 0 0 0 0-11.565zm7.465-.105a1.367 1.367 0 1 1-2.733 0 1.367 1.367 0 0 1 2.733 0z"/></symbol><symbol viewBox="0 0 20 20" id="phone" xmlns="http://www.w3.org/2000/svg"><path d="M16.04 19.506A16.03 16.03 0 0 1 4.494 7.96C3.949 5.819 5.79 4 8 4h1c.552 0 .995.449 1.05.998a10 10 0 0 0 .639 2.656l-1.52 1.52a12.05 12.05 0 0 0 5.657 5.657l1.52-1.52c.852.334 1.746.55 2.656.64.55.054.998.497.998 1.049v1c0 2.21-1.819 4.051-3.96 3.506z"/></symbol><symbol viewBox="0 0 100 100" id="play" xmlns="http://www.w3.org/2000/svg"><path fill-rule="evenodd" clip-rule="evenodd" d="M50 100c27.614 0 50-22.386 50-50S77.614 0 50 0 0 22.386 0 50s22.386 50 50 50zm13.083-52.324a4.426 4.426 0 0 0-1.695-1.654L42.704 35.578c-3.009-1.68-6.704.506-6.704 3.969v20.888c0 3.461 3.695 5.65 6.704 3.966l18.684-10.443a4.426 4.426 0 0 0 1.695-1.653c.409-.7.624-1.5.624-2.315s-.215-1.615-.624-2.314z"/></symbol></svg>