<?xml version="1.0" encoding="utf-8"?><svg xmlns="http://www.w3.org/2000/svg" xmlns:xlink="http://www.w3.org/1999/xlink"><symbol viewBox="0 0 27 23" id="arrow-slider" xmlns="http://www.w3.org/2000/svg"><path d="M.94 10.94a1.5 1.5 0 0 0 0 2.12l9.545 9.547a1.5 1.5 0 1 0 2.122-2.122L4.12 12l8.486-8.485a1.5 1.5 0 1 0-2.122-2.122L.94 10.94zM27 10.5H2v3h25v-3z"/></symbol><symbol viewBox="0 0 67 83" id="bottle" xmlns="http://www.w3.org/2000/svg"><path d="M8.01 11.87h17.36v3.988c2.485.162 3.133-.644 5.151-1.796.71-.57 2.292-1.682 3.025-2.22 2.022-1.477 6.044-4.856 8.578-4.645 1.884.06 4.61 1.466 5.992 2.636.678.556 5.633 4.393 6.322 4.935 0 0 5.812 4.805 7.09 5.864 2.876 2.36 4.69 6.17 5.226 9.665.08 1.21.127 3.297.12 4.509.003 1.074-.004 33.387-.004 33.387.012 3.871-.438 8.21-3.198 11.129-2.192 2.206-6.148 3.654-9.254 3.678h-1.005c-.577.002-1.153 0-1.729 0H50.5c-1.124.003-2.266-.044-3.39-.043-.703 0-1.45.042-2.153.043-2.33.003-4.659 0-6.988 0h-.76c-2.033 0-4.065-.005-6.098 0h-6.275c-1.173 0-2.345-.004-3.517 0a521.72 521.72 0 0 1-3.31 0c-.403 0-.807-.002-1.21 0-3.916.02-7.85-.66-10.726-3.5C3.67 76.972 2.49 72.928 2.5 69.502v-.62c-.002-.683 0-1.365 0-2.047v-1.473c-.003-1.192 0-2.384 0-3.576v-2.908c-.003-2.751 0-5.503 0-8.255v-.898c0-2.404.005-4.807 0-7.211-.005-2.472 0-4.944 0-7.416 0-1.387.004-2.773 0-4.16a835.44 835.44 0 0 1 0-3.54c.001-.6.003-1.202 0-1.803-.003-.653-.003-1.306 0-1.96-.002-.188.002-.376 0-.57.019-1.99.146-4.136 1.5-5.565 1-1 3.064-1.642 4.01-1.642v-3.987zm30.92 1.103c-.378.29-.836.639-1.22.922-.883.65-1.752 1.404-2.631 2.061-5.883 4.396-6.006 4.137-7.062 4.137l-.503.001a8573.09 8573.09 0 0 0-1.136 0l-1.254.001c-.89 0-1.778.005-2.667.008-1.656.007-3.312.013-4.968.012-1.15 0-2.302.005-3.452.012-.439.002-.878.002-1.316 0a164.05 164.05 0 0 0-1.843.008l-.548-.006c-1.001.015-1.642.142-2.439.768-.522.571-.65 1.098-.651 1.862l-.004.53.002.58-.003.617c-.002.685-.002 1.37-.001 2.056l-.004 1.472c-.003 1.196-.004 2.392-.004 3.587l-.002 2.918c-.003 2.758-.005 5.516-.005 8.275v.902c0 2.41-.003 4.822-.008 7.233-.005 2.476-.008 4.953-.008 7.43 0 1.39 0 2.78-.004 4.17a731.487 731.487 0 0 0-.002 3.552c.001.604 0 1.207-.002 1.81-.003.657-.001 1.313.002 1.968l-.006.572c.023 2.424 1.046 4.305 2.638 6.065 1.503 1.473 3.389 2.088 5.436 2.09a708.901 708.901 0 0 0 2.243.007c.412 0 .823.002 1.235.004a2499.262 2499.262 0 0 0 5.46.013l5.818.01h1.51l.38.001c2.023.003 4.046.009 6.07.016 2.079.008 4.158.012 6.238.013 1.166 0 2.333.003 3.5.009 1.098.005 2.197.007 3.296.004.402 0 .804.002 1.206.005 3.1.024 5.43-.28 7.795-2.502.794-.82 1.283-1.654 1.706-2.71-.094.22.093-.216 0 0 0 0 .62-2.279.613-3.18l.003-.507c.003-.56.001-1.118 0-1.676l.004-1.206c.003-1.089.003-2.178.002-3.268l.001-2.733c.003-2.273.002-4.547 0-6.82-.002-1.97 0-3.939.005-5.908.005-2.026.006-4.053.005-6.08 0-1.135 0-2.271.003-3.407.003-1.07.002-2.139-.001-3.208 0-.39 0-.782.002-1.172.016-3.732-.756-6.641-3.334-9.483-1.3-1.307-2.671-2.455-4.12-3.585l-4.413-3.469c-1.154-.951 1.176.923 0 0 0 0-5.98-4.883-6.11-4.987-1-.777-1.478-1.327-2.766-1.286-.955.228-1.92.9-2.685 1.492z"/><path d="M29.958 41c.805.243 1.356.801 1.985 1.378.708.648 3.067 3.16 3.54 3.647.471.486 2.49 2.996 2.893 3.548 1.598 2.202 2.971 4.421 4.008 6.968l.163.378c.96 2.626.255 5.785-.81 8.244a12.41 12.41 0 0 1-1.712 2.725l-.2.245c-.92 1.122-1.876 2.07-3.104 2.835l-.394.255c-.841.513-1.695.87-2.624 1.173l-.31.102c-3.12.96-6.482.503-9.338-1.033-.791-.443-1.556-.912-2.277-1.47l-.274-.202c-2.393-1.915-4.058-5.346-4.445-8.39-.144-2.082-.077-3.918.787-5.835l.161-.36c.834-1.822 1.845-3.434 3.062-5.005.238-.309.471-.62.703-.934.656-.88 2.08-2.61 2.867-3.372 0 0 3.293-3.48 3.431-3.62.554-.561 1.138-1.052 1.888-1.277zm-.667 4.316-1.683 1.753c-.844.88-1.485 1.712-2.375 2.759-.29.368-.593.715-.908 1.06-2.55 2.941-4.538 6.225-4.322 10.245.184 1.771 1.084 3.396 2.09 4.81l.213.31c1.339 1.775 3.618 3.192 5.778 3.54 3.065.27 5.756-.276 8.264-2.23 1.515-1.342 2.58-3.075 3.205-5.024l.116-.349c.639-2.337.188-4.525-.909-6.608-1.342-2.46-4.968-6.736-4.968-6.736s-1.887-2.154-2.39-2.68c0 0-.675-.685-.875-.87-.106-.1-.314-.325-.55-.325-.236 0-.326-.005-.686.345z"/><path d="M35.783 58.048c.527.17.767.369 1.107.768.32 1.425-.079 2.786-.895 4.013-1.266 1.506-2.736 2.661-4.83 3.049-1.754.2-1.7.16-2.483-.171-.45-.42-.623-.878-.682-1.444.124-.636.242-.905.831-1.282.596-.248 1.219-.306 1.865-.391.937-.165 1.65-.702 2.243-1.36.264-.446.35-.886.462-1.38.147-.637.258-1.02.648-1.575.64-.324 1.021-.305 1.734-.227z"/><path fill-rule="evenodd" clip-rule="evenodd" d="M40.364 22.803c-.437-.39-.86-.761-1.367-1.059-.988-.194-1.52.08-2.296.648l-3.492 2.723s-2.441 1.67-3.676 2.567c-.174.127-.356.25-.538.375-.918.625-1.864 1.27-2.048 2.4-.067.671.179.983.532 1.422.098.08.18.148.268.207.457.304 1.078.363 4.923.727l1.984.186c1.712.16 3.936.367 4.343.407 0 0 6.425.709 8.062.923.184.025.362.051.538.077.978.142 1.862.27 2.884.093.542-.091.947-.589 1.13-1.133.113-.325.102-.832.102-.832a1.711 1.711 0 0 0-.078-.375c-.095-.247-.325-.44-1.105-1.096l-.434-.345-.486-.388c-.993-.79-1.981-1.586-2.962-2.392a210.707 210.707 0 0 0-3.492-2.823 46.402 46.402 0 0 1-1.637-1.319l-.385-.334-.77-.659zm-1.02 3.593c-.325-.31-.586-.56-1.108-.652-.467-.04-1.086.402-1.67.819-.203.144-.4.286-.587.403-.134.084-.298.178-.476.28-.85.486-2.039 1.164-1.955 1.969.142.558 1.156.638 2.086.712a87.966 87.966 0 0 0 2.707.199 1491.832 1491.832 0 0 0 5.51.314c.129.015.179.02.187-.132.004-.07-.29-.29-.57-.502-.12-.09-.24-.18-.33-.255-.133-.106-2.368-1.917-2.368-1.917s-.497-.45-.993-.85c-.168-.135-.306-.267-.433-.388z"/></symbol><symbol viewBox="0 0 86 85" id="boxes" xmlns="http://www.w3.org/2000/svg"><g clip-path="url(#ca)"><path d="M56.438.084 86 14.865V47.83l-5.375-2.687V20.87l-21.5 10.75v10.834l-5.375 2.688V31.62l-21.5-10.75v9.532l-5.375-2.687v-12.85L56.438.084zm0 26.875 7.432-3.737-19.442-11.128-8.86 4.45 20.87 10.415zm13.227-6.593 7.643-3.821-20.87-10.456-6.257 3.15 19.484 11.127zM48.375 47.83 43 50.517v-.042l-16.125 8.062v19.107L43 69.539v6.047l-18.813 9.406L0 72.856V44.47l24.188-12.094L48.374 44.47v3.36zM21.5 77.644V58.537L5.375 50.475v19.064L21.5 77.644zm2.688-23.768 15.495-7.727-15.495-7.768-15.496 7.768 15.495 7.727zm24.187-.042 18.813-9.406L86 53.834v22.13L67.187 85.37l-18.812-9.406v-22.13zM64.5 78.022V65.214l-10.75-5.375v12.808L64.5 78.02zm16.125-5.376V59.84l-10.75 5.375v12.808l10.75-5.376zM67.187 60.553l10.12-5.081-10.12-5.04-10.12 5.04 10.12 5.08z"/></g><defs><clipPath id="ca"><path d="M0 0h86v86H0z"/></clipPath></defs></symbol><symbol viewBox="0 0 22 20" id="email" xmlns="http://www.w3.org/2000/svg"><path d="M3 5v-.5a.5.5 0 0 0-.5.5H3zm18 0h.5a.5.5 0 0 0-.5-.5V5zM3 5.5h18v-1H3v1zM20.5 5v12h1V5h-1zM19 18.5H5v1h14v-1zM3.5 17V5h-1v12h1zM5 18.5A1.5 1.5 0 0 1 3.5 17h-1A2.5 2.5 0 0 0 5 19.5v-1zM20.5 17a1.5 1.5 0 0 1-1.5 1.5v1a2.5 2.5 0 0 0 2.5-2.5h-1z"/><path d="m3 5 9 9 9-9"/></symbol><symbol viewBox="0 0 21 26" id="facebook" xmlns="http://www.w3.org/2000/svg"><path d="M17.75 3.594a5.781 5.781 0 0 0-5.781 5.781v3.219H8.875a.28.28 0 0 0-.281.281v4.25a.28.28 0 0 0 .281.281h3.094v8.719a.28.28 0 0 0 .281.281h4.25a.28.28 0 0 0 .281-.281v-8.719h3.122a.28.28 0 0 0 .272-.212l1.063-4.25a.28.28 0 0 0-.273-.35h-4.184V9.375a.968.968 0 0 1 .969-.969H21a.28.28 0 0 0 .281-.281v-4.25A.28.28 0 0 0 21 3.594h-3.25z"/></symbol><symbol viewBox="0 0 28 28" id="instagram" xmlns="http://www.w3.org/2000/svg"><path d="M9.75 2.5h10.5c4 0 7.25 3.25 7.25 7.25v10.5a7.25 7.25 0 0 1-7.25 7.25H9.75c-4 0-7.25-3.25-7.25-7.25V9.75A7.25 7.25 0 0 1 9.75 2.5zM9.5 5A4.5 4.5 0 0 0 5 9.5v11C5 22.988 7.013 25 9.5 25h11a4.5 4.5 0 0 0 4.5-4.5v-11C25 7.013 22.988 5 20.5 5h-11zm12.063 1.875a1.563 1.563 0 1 1 0 3.125 1.563 1.563 0 0 1 0-3.125zM15 8.75a6.25 6.25 0 1 1 0 12.5 6.25 6.25 0 0 1 0-12.5zm0 2.5a3.75 3.75 0 1 0 0 7.5 3.75 3.75 0 0 0 0-7.5z"/></symbol><symbol viewBox="0 0 22 20" id="mail" xmlns="http://www.w3.org/2000/svg"><path d="M3 5v-.5a.5.5 0 0 0-.5.5H3zm18 0h.5a.5.5 0 0 0-.5-.5V5zM3 5.5h18v-1H3v1zM20.5 5v12h1V5h-1zM19 18.5H5v1h14v-1zM3.5 17V5h-1v12h1zM5 18.5A1.5 1.5 0 0 1 3.5 17h-1A2.5 2.5 0 0 0 5 19.5v-1zM20.5 17a1.5 1.5 0 0 1-1.5 1.5v1a2.5 2.5 0 0 0 2.5-2.5h-1z"/><path d="m3 5 9 9 9-9"/></symbol><symbol viewBox="0 0 85 70" id="people" xmlns="http://www.w3.org/2000/svg"><path d="M10.75 29.563a18.812 18.812 0 1 1 31.702 13.7A29.615 29.615 0 0 1 58.76 65.215a4.032 4.032 0 1 1-7.966 1.263 21.5 21.5 0 0 0-42.463 0A4.033 4.033 0 1 1 .366 65.21a29.562 29.562 0 0 1 16.307-21.941 18.812 18.812 0 0 1-5.923-13.706zM59.125 21.5a16.13 16.13 0 0 1 11.933 26.972 26.873 26.873 0 0 1 13.76 16.19 4.026 4.026 0 0 1-4.757 5.127 4.03 4.03 0 0 1-2.951-2.763 18.867 18.867 0 0 0-13.556-12.75 4.03 4.03 0 0 1-3.085-3.923v-1.892a4.03 4.03 0 0 1 2.236-3.612 8.062 8.062 0 0 0-3.58-15.286 4.031 4.031 0 0 1 0-8.063zm-29.563-2.688a10.75 10.75 0 1 0-.486 21.494 10.75 10.75 0 0 0 .486-21.493z"/></symbol><symbol viewBox="0 0 20 20" id="phone" xmlns="http://www.w3.org/2000/svg"><path d="M16.04 19.506A16.03 16.03 0 0 1 4.494 7.96C3.949 5.819 5.79 4 8 4h1c.552 0 .995.449 1.05.998a10 10 0 0 0 .639 2.656l-1.52 1.52a12.05 12.05 0 0 0 5.657 5.657l1.52-1.52c.852.334 1.746.55 2.656.64.55.054.998.497.998 1.049v1c0 2.21-1.819 4.051-3.96 3.506z"/></symbol><symbol viewBox="0 0 100 100" id="play" xmlns="http://www.w3.org/2000/svg"><path fill-rule="evenodd" clip-rule="evenodd" d="M50 100c27.614 0 50-22.386 50-50S77.614 0 50 0 0 22.386 0 50s22.386 50 50 50zm13.083-52.324a4.426 4.426 0 0 0-1.695-1.654L42.704 35.578c-3.009-1.68-6.704.506-6.704 3.969v20.888c0 3.461 3.695 5.65 6.704 3.966l18.684-10.443a4.426 4.426 0 0 0 1.695-1.653c.409-.7.624-1.5.624-2.315s-.215-1.615-.624-2.314z"/></symbol><symbol viewBox="0 0 20 22" id="point" xmlns="http://www.w3.org/2000/svg"><path d="M12 6.375a3.375 3.375 0 1 0 0 6.75 3.375 3.375 0 0 0 0-6.75zm0 6a2.625 2.625 0 1 1 0-5.25 2.625 2.625 0 0 1 0 5.25zm0-10.5A7.883 7.883 0 0 0 4.125 9.75c0 2.852 1.328 5.887 3.844 8.777a23.435 23.435 0 0 0 3.818 3.53.375.375 0 0 0 .43 0 23.44 23.44 0 0 0 3.814-3.53c2.514-2.89 3.844-5.925 3.844-8.777A7.883 7.883 0 0 0 12 1.875zm3.478 16.147A23.866 23.866 0 0 1 12 21.282a23.867 23.867 0 0 1-3.478-3.264c-1.664-1.912-3.647-4.902-3.647-8.268a7.125 7.125 0 0 1 14.25 0c0 3.366-1.983 6.356-3.647 8.272z"/></symbol><symbol viewBox="0 0 27 27" id="telegram" xmlns="http://www.w3.org/2000/svg"><path fill-rule="evenodd" clip-rule="evenodd" d="M24.721 5.537A1.875 1.875 0 0 1 27.3 7.57l-2.835 17.196c-.275 1.659-2.095 2.61-3.616 1.784-1.273-.691-3.163-1.756-4.863-2.867-.85-.557-3.454-2.338-3.134-3.605.275-1.084 4.65-5.157 7.15-7.578.982-.951.534-1.5-.625-.625-2.877 2.172-7.497 5.476-9.025 6.406-1.347.82-2.05.96-2.89.82-1.532-.255-2.954-.65-4.114-1.131-1.567-.65-1.49-2.805 0-3.432l21.374-9z"/></symbol><symbol viewBox="0 0 25 26" id="tiktok" xmlns="http://www.w3.org/2000/svg"><path d="M20.75 7.275a5.35 5.35 0 0 1-1.325-3.525h-3.863v15.5a3.238 3.238 0 0 1-3.237 3.125 3.26 3.26 0 0 1-3.25-3.25c0-2.15 2.075-3.762 4.213-3.1v-3.95C8.974 11.5 5.2 14.85 5.2 19.125c0 4.163 3.45 7.125 7.112 7.125 3.926 0 7.113-3.188 7.113-7.125v-7.863a9.188 9.188 0 0 0 5.375 1.726V9.125s-2.35.113-4.05-1.85z"/></symbol><symbol viewBox="0 0 28 24" id="youtube" xmlns="http://www.w3.org/2000/svg"><path d="M12.5 18.75 18.988 15 12.5 11.25v7.5zm14.45-9.787c.163.587.275 1.375.35 2.375.087 1 .125 1.862.125 2.612L27.5 15c0 2.738-.2 4.75-.55 6.038-.313 1.125-1.037 1.85-2.162 2.162-.588.163-1.663.275-3.313.35a83.312 83.312 0 0 1-4.488.125L15 23.75c-5.238 0-8.5-.2-9.787-.55-1.125-.313-1.85-1.037-2.163-2.162-.162-.588-.275-1.375-.35-2.375-.088-1-.125-1.863-.125-2.613L2.5 15c0-2.738.2-4.75.55-6.037.313-1.125 1.038-1.85 2.163-2.163.587-.162 1.662-.275 3.312-.35a83.312 83.312 0 0 1 4.487-.125L15 6.25c5.238 0 8.5.2 9.788.55 1.125.313 1.85 1.038 2.162 2.163z"/></symbol></svg>